<svg id="Layer_1" enable-background="new 0 0 256 256" height="512" viewBox="0 0 256 256" width="512" xmlns="http://www.w3.org/2000/svg"><path d="m177.644 242.92h-140.76c-8.13 0-14.72-6.59-14.72-14.72v-179.4c0-8.13 6.59-14.72 14.72-14.72h140.76c8.13 0 14.72 6.59 14.72 14.72v179.4c0 8.13-6.591 14.72-14.72 14.72z" fill="#a4c9ff"/><path d="m35.601 221.8v-166.6c0-4.065 3.295-7.36 7.36-7.36h128.606c4.065 0 7.36 3.295 7.36 7.36v166.6c0 4.065-3.295 7.36-7.36 7.36h-128.606c-4.065 0-7.36-3.295-7.36-7.36z" fill="#f9cfcf"/><g fill="#e0ebfc"><path d="m73.816 165.583h-19.75c-3.314 0-6-2.686-6-6v-19.75c0-3.314 2.686-6 6-6h19.75c3.314 0 6 2.686 6 6v19.75c0 3.314-2.686 6-6 6z"/><path d="m168.728 153.708h-71.25c-2.209 0-4-1.791-4-4s1.791-4 4-4h71.25c2.209 0 4 1.791 4 4s-1.791 4-4 4z"/><path d="m73.816 211.583h-19.75c-3.314 0-6-2.686-6-6v-19.75c0-3.314 2.686-6 6-6h19.75c3.314 0 6 2.686 6 6v19.75c0 3.314-2.686 6-6 6z"/><path d="m166.461 199.708h-71.25c-2.209 0-4-1.791-4-4s1.791-4 4-4h71.25c2.209 0 4 1.791 4 4s-1.791 4-4 4z"/></g><path d="m63.85 159.608c-1.85 0-3.616-.864-4.75-2.333l-7.075-9.159c-1.351-1.748-1.028-4.26.72-5.611 1.75-1.351 4.261-1.028 5.611.72l5.4 6.991 14.964-21.734c1.252-1.82 3.745-2.279 5.563-1.026 1.82 1.253 2.279 3.743 1.026 5.563l-16.519 23.991c-1.083 1.573-2.869 2.543-4.778 2.595-.054.002-.108.003-.162.003z" fill="#a4c9ff"/><path d="m63.85 205.608c-1.851 0-3.617-.864-4.75-2.333l-7.075-9.159c-1.351-1.748-1.028-4.26.72-5.611 1.75-1.351 4.261-1.028 5.611.72l5.4 6.991 14.964-21.734c1.252-1.82 3.743-2.279 5.563-1.026s2.279 3.743 1.026 5.563l-16.519 23.991c-1.083 1.573-2.869 2.543-4.778 2.595-.054.002-.108.003-.162.003z" fill="#a4c9ff"/><path d="m177.644 244.92h-140.76c-9.22 0-16.72-7.5-16.72-16.72v-179.4c0-9.219 7.5-16.72 16.72-16.72h140.76c9.22 0 16.72 7.5 16.72 16.72v179.4c0 9.219-7.501 16.72-16.72 16.72zm-140.76-208.84c-7.014 0-12.72 5.706-12.72 12.72v179.4c0 7.014 5.706 12.72 12.72 12.72h140.76c7.014 0 12.72-5.706 12.72-12.72v-179.4c0-7.014-5.706-12.72-12.72-12.72z" fill="#3762cc"/><path d="m171.567 231.161h-128.607c-5.161 0-9.36-4.199-9.36-9.36v-166.601c0-5.161 4.199-9.36 9.36-9.36h128.606c5.161 0 9.36 4.199 9.36 9.36v166.6c.001 5.161-4.198 9.361-9.359 9.361zm-128.607-181.322c-2.956 0-5.36 2.405-5.36 5.36v166.601c0 2.956 2.404 5.36 5.36 5.36h128.606c2.956 0 5.36-2.405 5.36-5.36v-166.6c0-2.956-2.404-5.36-5.36-5.36h-128.606z" fill="#3762cc"/><path d="m152.264 53.333h-90c-2.209 0-4-1.791-4-4v-16.333c0-6.627 5.373-12 12-12h74c6.627 0 12 5.373 12 12v16.333c0 2.209-1.791 4-4 4z" fill="#4671c6"/><circle cx="185.236" cy="198.854" fill="#6bdddd" r="49"/><circle cx="185.236" cy="198.854" fill="#ffea92" r="35.875"/><circle cx="185.236" cy="198.854" fill="#f9a7a7" r="12.931"/><path d="m185.236 201.576c-1.503 0-2.722-1.219-2.722-2.722v-26.365c0-1.503 1.219-2.722 2.722-2.722s2.722 1.219 2.722 2.722v26.365c0 1.504-1.219 2.722-2.722 2.722z" fill="#3762cc"/><path d="m211.601 201.576h-26.365c-1.503 0-2.722-1.219-2.722-2.722s1.219-2.722 2.722-2.722h26.365c1.503 0 2.722 1.219 2.722 2.722s-1.219 2.722-2.722 2.722z" fill="#a4c9ff"/><path d="m185.236 249.854c-28.122 0-51-22.878-51-51s22.878-51 51-51 51 22.878 51 51-22.878 51-51 51zm0-98c-25.916 0-47 21.084-47 47s21.084 47 47 47 47-21.084 47-47-21.084-47-47-47z" fill="#3762cc"/><path d="m185.236 236.729c-20.884 0-37.875-16.991-37.875-37.875s16.991-37.875 37.875-37.875 37.875 16.991 37.875 37.875-16.99 37.875-37.875 37.875zm0-71.75c-18.679 0-33.875 15.196-33.875 33.875s15.196 33.875 33.875 33.875 33.875-15.196 33.875-33.875-15.196-33.875-33.875-33.875z" fill="#3762cc"/><path d="m110.988 64.727 5.747 11.645c.605 1.226 1.774 2.076 3.127 2.272l12.851 1.867c3.407.495 4.767 4.682 2.302 7.084l-9.299 9.064c-.979.954-1.426 2.329-1.195 3.676l2.195 12.799c.582 3.393-2.979 5.98-6.026 4.378l-11.494-6.043c-1.21-.636-2.656-.636-3.866 0l-11.494 6.043c-3.047 1.602-6.608-.985-6.026-4.378l2.195-12.799c.231-1.347-.216-2.722-1.195-3.676l-9.299-9.064c-2.465-2.403-1.105-6.589 2.302-7.084l12.851-1.867c1.353-.197 2.522-1.046 3.127-2.272l5.747-11.645c1.525-3.087 5.927-3.087 7.45 0z" fill="#ffea92"/><path d="m152.264 55.333h-90c-3.309 0-6-2.691-6-6v-16.333c0-7.72 6.28-14 14-14h74c7.72 0 14 6.28 14 14v16.333c0 3.309-2.692 6-6 6zm-82-32.333c-5.514 0-10 4.486-10 10v16.333c0 1.103.897 2 2 2h90c1.103 0 2-.897 2-2v-16.333c0-5.514-4.486-10-10-10z" fill="#3762cc"/><path d="m136.514 31.333h-58.5c-2.209 0-4-1.791-4-4v-12.008c0-5.15 4.175-9.325 9.325-9.325h47.85c5.15 0 9.325 4.175 9.325 9.325v12.008c0 2.209-1.791 4-4 4z" fill="#4671c6"/><path d="m136.514 33.333h-58.5c-3.309 0-6-2.691-6-6v-12.008c0-6.245 5.08-11.325 11.325-11.325h47.85c6.245 0 11.325 5.08 11.325 11.325v12.009c0 3.308-2.692 5.999-6 5.999zm-53.175-25.333c-4.039 0-7.325 3.286-7.325 7.325v12.009c0 1.103.897 2 2 2h58.5c1.103 0 2-.897 2-2v-12.009c0-4.039-3.286-7.325-7.325-7.325z" fill="#3762cc"/></svg>