<svg enable-background="new 0 0 256 256" height="512" viewBox="0 0 256 256" width="512" xmlns="http://www.w3.org/2000/svg"><path d="m241.354 55.163c-23.567-7.094-26.512-32.843-26.657-43.935-.037-2.831-2.4-5.141-5.231-5.141h-162.932c-2.831 0-5.194 2.31-5.231 5.141-.145 11.092-3.09 36.841-26.657 43.935-2.281.686-3.817 2.823-3.716 5.203.885 20.951 10.267 114.885 106.109 185.898 6.525 4.835 15.397 4.835 21.923 0 95.841-71.013 105.224-164.948 106.108-185.898.101-2.38-1.435-4.516-3.716-5.203z" fill="#5fcdff"/><path d="m135.5 248.289c-5.97 2.67-13.03 2-18.46-2.02-95.84-71.02-105.23-164.95-106.11-185.9-.1-2.38 1.44-4.52 3.72-5.21 23.56-7.09 26.51-32.84 26.65-43.93.04-2.83 2.4-5.14 5.23-5.14h15c-2.83 0-5.19 2.31-5.23 5.14-.14 11.09-3.09 36.84-26.65 43.93-2.28.69-3.82 2.83-3.72 5.21.88 20.95 10.27 114.88 106.11 185.9 1.09.81 2.25 1.49 3.46 2.02z" fill="#73d7f9"/><path d="m245.07 60.369c-.88 20.95-10.27 114.88-106.11 185.9-5.43 4.02-12.49 4.69-18.46 2.02 1.21-.53 2.37-1.21 3.46-2.02 95.84-71.02 105.23-164.95 106.11-185.9.1-2.38-1.44-4.52-3.72-5.21-23.56-7.09-26.51-32.84-26.65-43.93-.04-2.83-2.4-5.14-5.23-5.14h15c2.83 0 5.19 2.31 5.23 5.14.14 11.09 3.09 36.84 26.65 43.93 2.28.69 3.82 2.83 3.72 5.21z" fill="#30b6ff"/><path d="m121.722 124.314c-.205 0-.41-.007-.616-.022-2.378-.17-4.58-1.315-6.084-3.165l-16.072-19.767c-3.008-3.7-2.447-9.137 1.253-12.145 3.702-3.009 9.138-2.446 12.146 1.252l10.271 12.633 27.874-25.739c3.503-3.235 8.965-3.017 12.2.486s3.017 8.965-.486 12.2l-34.629 31.977c-1.601 1.477-3.694 2.29-5.857 2.29z" fill="#ffefee"/><g fill="#5f266d"><path d="m185.003 33.098h7.507c2.209 0 4-1.791 4-4s-1.791-4-4-4h-7.507c-2.209 0-4 1.791-4 4s1.791 4 4 4z"/><path d="m133.003 33.098h37c2.209 0 4-1.791 4-4s-1.791-4-4-4h-37c-2.209 0-4 1.791-4 4s1.791 4 4 4z"/><path d="m156.854 71.081c-3.389-.142-6.595 1.052-9.074 3.342l-24.743 22.849-7.584-9.329c-4.396-5.403-12.367-6.226-17.772-1.832s-6.228 12.367-1.833 17.773l16.072 19.767c4.54 5.587 12.954 6.315 18.374 1.312l34.629-31.977c8.187-7.56 3.222-21.456-8.069-21.905zm-31.988 48.004c-1.96 1.809-5.051 1.598-6.74-.481-17.37-21.363-17.354-20.572-17.086-23.166.425-4.118 5.623-5.621 8.205-2.448l10.271 12.633c1.455 1.79 4.124 1.98 5.817.415l27.874-25.738c3.047-2.816 7.938-.491 7.773 3.589-.104 2.653 1.371.581-36.114 35.196z"/><path d="m242.508 51.333c-21.099-6.351-23.681-30.199-23.811-40.157-.066-5.011-4.207-9.088-9.231-9.088h-162.932c-5.024 0-9.165 4.077-9.231 9.088-.13 9.958-2.712 33.807-23.811 40.157-4.039 1.216-6.736 5-6.559 9.202.46 10.898 3.11 40.075 17.744 75.533 18.438 44.677 48.713 82.834 89.979 113.41 3.991 2.957 8.667 4.435 13.344 4.435 4.676 0 9.352-1.479 13.342-4.435 41.268-30.576 71.541-68.733 89.979-113.41 14.634-35.458 17.284-64.634 17.744-75.533.179-4.202-2.518-7.986-6.557-9.202zm-105.927 191.717c-5.134 3.803-12.029 3.802-17.161 0-95.081-70.449-103.727-164.679-104.494-182.853-.022-.547.336-1.042.873-1.204 26.167-7.876 29.35-35.991 29.504-47.713.008-.635.584-1.193 1.231-1.193h162.932c.647 0 1.224.558 1.231 1.193.154 11.722 3.337 39.837 29.504 47.713.537.162.896.657.873 1.204-.767 18.174-9.413 112.404-104.493 182.853z"/><path d="m92.572 167.671c9.006-5.508 8.771-17.95 8.754-18.524-.149-5.24-8.105-5.072-7.997.214.002.091.109 8.586-5.194 11.633-2.442-3.824-4.743-7.683-6.91-11.542 8.353-4.94 9.389-16.206 9.434-16.75.435-5.253-7.495-5.917-7.972-.675-.008.084-.726 7.344-5.288 10.354-2.348-4.504-4.517-8.977-6.514-13.362 8.564-5.369 9.915-17.053 9.974-17.604.233-2.197-1.358-4.167-3.555-4.4-2.187-.229-4.167 1.357-4.4 3.555-.009.085-.912 7.326-5.303 10.967-1.72-4.066-3.293-8.023-4.72-11.818 8.057-6.56 10.269-18.042 10.366-18.564.401-2.172-1.034-4.259-3.206-4.661-2.169-.405-4.259 1.032-4.661 3.206-.015.084-1.391 6.936-5.475 11.772-1.897-5.487-3.463-10.49-4.732-14.829 8.761-6.214 11.63-17.106 11.752-17.583.546-2.14-.746-4.318-2.887-4.865-2.142-.548-4.318.746-4.865 2.886-.019.076-1.777 6.47-6.346 11.077-1.379-5.315-2.015-8.457-2.043-8.596-.428-2.166-2.528-3.581-4.698-3.15-2.167.427-3.578 2.529-3.151 4.696.111.562.768 3.814 2.1 9.038-5.601-1.728-9.726-6.28-9.785-6.345-1.461-1.649-3.982-1.807-5.637-.35-1.658 1.459-1.819 3.987-.36 5.646.336.381 7.792 8.703 18.115 9.616 1.347 4.666 3.031 10.078 5.094 16.028-5.623-.78-10.789-6.792-12.408-9.25-1.209-1.845-3.684-2.363-5.53-1.159-1.851 1.207-2.373 3.685-1.166 5.536 6.77 10.4 17.696 14.181 21.946 12.735 1.447 3.849 3.038 7.857 4.784 11.982-5.484.631-11.317-4.5-13.21-6.676-1.442-1.667-3.96-1.855-5.635-.415-1.674 1.441-1.863 3.966-.423 5.641 5.232 6.081 14.717 11.372 22.551 8.922 2.011 4.415 4.192 8.921 6.559 13.469-6.535.877-13.355-4.015-13.43-4.071-1.774-1.306-4.272-.932-5.586.841-1.314 1.775-.941 4.28.834 5.595 4.606 3.411 13.774 7.452 22.131 4.943 2.167 3.865 4.468 7.738 6.911 11.587-4.671.676-9.972-.551-12.214-1.328-2.079-.724-4.36.37-5.092 2.452-.731 2.084.364 4.367 2.449 5.099 5.008 1.761 13.08 2.914 19.548.876 3.303 4.799 6.834 9.528 10.61 14.121.791.962 1.937 1.46 3.092 1.46 3.341 0 5.244-3.918 3.088-6.54-3.434-4.185-6.662-8.499-9.699-12.89z"/><path d="m220.607 75.273c-.048.061-3.922 4.826-9.42 6.862 1.043-5.282 1.52-8.562 1.6-9.129.308-2.187-1.217-4.209-3.403-4.517-2.193-.314-4.211 1.215-4.519 3.403-.02.14-.483 3.314-1.57 8.698-4.84-4.361-6.923-10.653-6.948-10.728-.667-2.1-2.908-3.266-5.012-2.604-2.107.663-3.278 2.909-2.615 5.016.148.47 3.61 11.188 12.698 16.914-1.029 4.403-2.32 9.487-3.915 15.071-4.369-4.615-6.09-11.386-6.111-11.469-.524-2.142-2.68-3.456-4.827-2.937-2.147.52-3.466 2.682-2.946 4.829.125.516 2.962 11.86 11.367 17.969-1.218 3.868-2.572 7.907-4.067 12.062-4.59-3.385-5.872-10.538-5.896-10.675-.359-2.175-2.412-3.647-4.586-3.297-2.181.354-3.662 2.408-3.309 4.588.088.547 2.076 12.139 10.922 17.031-1.754 4.488-3.675 9.072-5.772 13.698-4.693-2.74-5.823-9.882-5.847-10.045-.309-2.181-2.321-3.701-4.508-3.402-2.188.302-3.718 2.321-3.416 4.51.075.541 1.727 11.733 10.338 16.208-1.952 3.972-4.039 7.951-6.267 11.903-5.442-2.742-5.818-11.181-5.823-11.33-.158-5.309-8.134-5.034-7.997.224.015.573.463 13.009 9.756 18.016-2.792 4.55-5.78 9.035-8.982 13.397-1.308 1.781-.923 4.284.857 5.592 1.787 1.31 4.286.919 5.592-.857 3.515-4.789 6.78-9.699 9.813-14.667 6.321 1.62 14.333.17 19.479-1.959 2.038-.844 3.005-3.177 2.165-5.217-.84-2.039-3.175-3.014-5.218-2.178-2.196.899-7.422 2.413-12.122 1.994 2.227-3.974 4.311-7.965 6.263-11.94 7.515 1.816 16.298-1.56 21.83-6.155 1.701-1.41 1.937-3.932.526-5.632s-3.933-1.937-5.632-.526c-.073.06-6.633 5.297-13.177 4.791 2.114-4.67 4.045-9.289 5.811-13.807 7.914 2.018 17.136-3.771 22.027-10.143 1.348-1.751 1.021-4.262-.73-5.609-1.753-1.347-4.264-1.02-5.609.731-.065.083-6.216 7.805-12.818 7.379 1.517-4.213 2.886-8.301 4.12-12.222 4.352 1.216 15.006-3.151 21.216-13.92 2.629-4.565-4.266-8.567-6.927-4.003-1.483 2.545-6.301 8.846-11.883 9.92 1.734-6.052 3.12-11.548 4.209-16.281 10.257-1.475 17.247-10.199 17.561-10.599 3.257-4.135-2.983-9.082-6.278-4.958z"/></g></svg>