<?xml version="1.0" encoding="iso-8859-1"?>
<!-- Generator: Adobe Illustrator 19.0.0, SVG Export Plug-In . SVG Version: 6.00 Build 0)  -->
<svg version="1.1" id="Capa_1" xmlns="http://www.w3.org/2000/svg" xmlns:xlink="http://www.w3.org/1999/xlink" x="0px" y="0px"
	 viewBox="0 0 512.001 512.001" style="enable-background:new 0 0 512.001 512.001;" xml:space="preserve">
<path style="fill:#E4EAF8;" d="M321.226,444.388c-42.603,2.239-87.788,2.242-130.452,0l-11.509,20.444
	c-2.841,5.047,0.693,11.255,6.627,11.605c45.744,2.696,93.979,2.65,139.921-0.19c6.018-0.372,9.592-6.672,6.71-11.791
	L321.226,444.388z"/>
<path style="fill:#D8DCE5;" d="M200.128,470.642l11.118-25.362c-6.92-0.245-13.755-0.539-20.472-0.892l-11.509,20.444
	c-2.841,5.047,0.693,11.255,6.627,11.605c4.414,0.26,8.875,0.489,13.361,0.699C198.963,475.02,199.202,472.753,200.128,470.642z"/>
<path style="fill:#5E6377;" d="M256,276.843c-141.385,0-256-23.726-256-52.994v169.475c0,24.653,81.328,45.374,191.475,51.295
	v-79.045c0-4.836,3.852-8.756,8.603-8.756h111.844c4.751,0,8.603,3.921,8.603,8.756v79.045C430.672,438.698,512,417.978,512,393.324
	V223.849C512,253.117,397.385,276.843,256,276.843z"/>
<path style="fill:#505668;" d="M20.605,244.707C7.35,238.305,0,231.255,0,223.849v169.475c0,7.406,7.349,14.457,20.605,20.859
	V244.707z"/>
<path style="fill:#707487;" d="M190.774,403.054v-38.513c0-4.803,3.894-8.697,8.697-8.697H312.53c4.803,0,8.697,3.894,8.697,8.697
	v38.513c109.786-5.971,190.768-26.653,190.774-51.253v-127.95c-0.003,14.633-28.656,27.881-74.981,37.47
	c-2.895,0.599-5.86,1.184-8.891,1.755c-3.031,0.57-6.128,1.126-9.289,1.666c-4.741,0.81-9.626,1.585-14.645,2.324
	c-88.449,13.021-207.613,13.069-296.39,0C82.654,263.364,0,249.375,0,223.849v127.95C0,376.4,80.984,397.083,190.774,403.054z"/>
<g>
	<path style="fill:#5E6377;" d="M20.605,372.657v-127.95c-0.018-0.009-0.034-0.017-0.051-0.026C12.005,240.547,0,233.306,0,223.849
		v127.95C0,359.205,7.349,366.255,20.605,372.657z"/>
	<path style="fill:#5E6377;" d="M191.193,361.879c1.125-3.5,4.404-6.034,8.278-6.034H312.53c3.874,0,7.153,2.534,8.278,6.034
		c109.999-5.941,191.187-26.645,191.193-51.276v-86.752c-0.003,14.633-28.656,27.881-74.981,37.47
		c-2.895,0.599-5.86,1.184-8.891,1.755c-3.031,0.57-6.128,1.126-9.289,1.666c-4.741,0.81-9.626,1.585-14.645,2.324
		c-88.449,13.021-207.613,13.069-296.39,0C82.654,263.364,0,249.375,0,223.849V310.6C0,335.233,81.19,355.938,191.193,361.879z"/>
</g>
<path style="fill:#505668;" d="M20.605,331.458v-86.751c-0.018-0.009-0.034-0.017-0.051-0.026l0,0
	c-4.655-2.251-5.576-3.03-6.606-3.546c-0.074-0.044-4.101-2.609-4.101-2.692c-2.938-2.125-5.73-4.623-7.632-7.611l0,0
	c-0.861-1.345-1.487-2.7-1.875-4.236l0,0C0.107,225.652,0,224.735,0,223.849V310.6C0,318.007,7.349,325.057,20.605,331.458z"/>
<path style="fill:#707487;" d="M256,275.813c-97.834,0-256-22.696-256-51.963v43.856C0,296.974,114.615,320.7,256,320.7
	c141.384,0,256-23.726,256-52.994V223.85C512,253.117,362.842,275.813,256,275.813z"/>
<path style="fill:#5E6377;" d="M13.947,241.136c-0.074-0.044-4.101-2.609-4.101-2.692c-2.938-2.125-5.73-4.623-7.632-7.611l0,0
	C0.857,228.712,0,226.369,0,223.85v43.855c0,7.406,7.35,14.456,20.605,20.858v-43.856c-0.018-0.009-0.034-0.017-0.051-0.026
	C15.899,242.431,14.978,241.651,13.947,241.136z"/>
<path style="fill:#008CFF;" d="M312.529,355.845H199.471c-4.803,0-8.697,3.894-8.697,8.697v80.038
	c42.603,2.317,87.788,2.32,130.452,0v-80.038C321.226,359.739,317.332,355.845,312.529,355.845z"/>
<path style="fill:#0074FF;" d="M211.379,362.889c0-2.842,1.305-5.377,3.348-7.044h-15.256c-4.803,0-8.697,3.894-8.697,8.697v80.038
	c6.76,0.368,13.639,0.674,20.605,0.927V362.889z"/>
<path style="fill:#5BDDFC;" d="M285.08,445.972v-36.536c0-3.524-2.857-6.381-6.381-6.381h-45.398c-3.524,0-6.381,2.857-6.381,6.381
	v36.536C245.86,446.416,264.72,446.45,285.08,445.972z"/>
<path style="fill:#00C3FF;" d="M247.525,408.102c0-1.992,0.844-3.782,2.187-5.048h-16.411c-3.524,0-6.381,2.857-6.381,6.381v36.536
	c6.785,0.159,13.672,0.245,20.605,0.295V408.102z"/>
<ellipse style="fill:#E4EAF8;" cx="256" cy="224.261" rx="256" ry="53.4"/>
<path style="fill:#D8DCE5;" d="M20.605,224.258c0-28.773,109.091-52.227,245.698-53.355c-3.419-0.028-6.85-0.047-10.302-0.047
	c-141.385,0-256,23.909-256,53.402s114.615,53.402,256,53.402c3.452,0,6.883-0.019,10.302-0.047
	C129.696,276.485,20.605,253.031,20.605,224.258z"/>
<ellipse style="fill:#5EC62E;" cx="256" cy="244.801" rx="157.53" ry="32.862"/>
<path style="fill:#50B21D;" d="M119.073,244.798c0-17.427,65.031-31.683,147.23-32.79c-3.407-0.046-6.84-0.072-10.302-0.072
	c-87.003,0-157.532,14.712-157.532,32.861s70.53,32.862,157.532,32.862c3.462,0,6.896-0.026,10.302-0.072
	C184.103,276.481,119.073,262.225,119.073,244.798z"/>
<g>
	<path style="fill:#707487;" d="M201.546,231.576c-4.267,0-7.727-3.459-7.727-7.727V41.31c0-4.267,3.459-7.727,7.727-7.727
		c4.267,0,7.727,3.459,7.727,7.727v182.54C209.273,228.117,205.813,231.576,201.546,231.576z"/>
	<path style="fill:#707487;" d="M310.454,231.576c-4.267,0-7.727-3.459-7.727-7.727V41.31c0-4.267,3.459-7.727,7.727-7.727
		s7.727,3.459,7.727,7.727v182.54C318.181,228.117,314.721,231.576,310.454,231.576z"/>
</g>
<path style="fill:#00C3FF;" d="M328.263,143.497H183.737c-2.874,0-5.203-2.33-5.203-5.203V63.911c0-2.874,2.33-5.203,5.203-5.203
	h144.525c2.874,0,5.203,2.33,5.203,5.203v74.383C333.466,141.168,331.136,143.497,328.263,143.497z"/>
<path style="fill:#00AAF0;" d="M199.139,138.137V64.068c0-2.961,2.4-5.361,5.361-5.361h-20.605c-2.961,0-5.361,2.4-5.361,5.361
	v74.068c0,2.96,2.4,5.361,5.361,5.361H204.5C201.539,143.497,199.139,141.097,199.139,138.137z"/>
<g>
	<path style="fill:#5BDDFC;" d="M227.554,121.51h-17.031c-4.267,0-7.727-3.459-7.727-7.727s3.459-7.727,7.727-7.727h17.031
		c4.267,0,7.727,3.459,7.727,7.727S231.822,121.51,227.554,121.51z"/>
	<path style="fill:#5BDDFC;" d="M301.477,121.51h-17.032c-4.267,0-7.727-3.459-7.727-7.727s3.459-7.727,7.727-7.727h17.032
		c4.267,0,7.727,3.459,7.727,7.727S305.745,121.51,301.477,121.51z"/>
	<path style="fill:#5BDDFC;" d="M257.713,121.51h-3.426c-4.267,0-7.727-3.459-7.727-7.727s3.459-7.727,7.727-7.727h3.426
		c4.267,0,7.727,3.459,7.727,7.727S261.98,121.51,257.713,121.51z"/>
	<path style="fill:#5BDDFC;" d="M294.675,96.144h-3.426c-4.267,0-7.727-3.459-7.727-7.727s3.459-7.727,7.727-7.727h3.426
		c4.267,0,7.727,3.459,7.727,7.727S298.942,96.144,294.675,96.144z"/>
	<path style="fill:#5BDDFC;" d="M220.752,96.144h-3.426c-4.267,0-7.727-3.459-7.727-7.727s3.459-7.727,7.727-7.727h3.426
		c4.267,0,7.727,3.459,7.727,7.727S225.019,96.144,220.752,96.144z"/>
</g>
<g>
</g>
<g>
</g>
<g>
</g>
<g>
</g>
<g>
</g>
<g>
</g>
<g>
</g>
<g>
</g>
<g>
</g>
<g>
</g>
<g>
</g>
<g>
</g>
<g>
</g>
<g>
</g>
<g>
</g>
</svg>
